<mxfile host="app.diagrams.net" modified="2020-07-27T10:33:26.812Z" agent="5.0 (Windows NT 10.0; Win64; x64) AppleWebKit/537.36 (KHTML, like Gecko) Chrome/84.0.4147.89 Safari/537.36" etag="mU2DIGmvlxtqq7qDQj2t" version="13.5.3" type="github">
  <diagram id="jIzyt-09wBRHmKfMBRYM" name="Page-1">
    <mxGraphModel dx="1102" dy="614" grid="1" gridSize="10" guides="1" tooltips="1" connect="1" arrows="1" fold="1" page="1" pageScale="1" pageWidth="827" pageHeight="1169" math="0" shadow="0">
      <root>
        <mxCell id="0" />
        <mxCell id="1" parent="0" />
        <mxCell id="b3ZvS2Oc_ApeLWtBjF95-5" style="edgeStyle=orthogonalEdgeStyle;rounded=0;orthogonalLoop=1;jettySize=auto;html=1;entryX=0.5;entryY=0;entryDx=0;entryDy=0;" edge="1" parent="1" source="b3ZvS2Oc_ApeLWtBjF95-1" target="b3ZvS2Oc_ApeLWtBjF95-3">
          <mxGeometry relative="1" as="geometry" />
        </mxCell>
        <mxCell id="b3ZvS2Oc_ApeLWtBjF95-1" value="&lt;b&gt;Config File:&lt;/b&gt;&lt;br&gt;vCenter Host&lt;br&gt;Cluster threshold&lt;br&gt;Host threshold" style="rounded=0;whiteSpace=wrap;html=1;" vertex="1" parent="1">
          <mxGeometry x="440" y="80" width="120" height="60" as="geometry" />
        </mxCell>
        <mxCell id="b3ZvS2Oc_ApeLWtBjF95-4" style="edgeStyle=orthogonalEdgeStyle;rounded=0;orthogonalLoop=1;jettySize=auto;html=1;entryX=0.5;entryY=0;entryDx=0;entryDy=0;" edge="1" parent="1" source="b3ZvS2Oc_ApeLWtBjF95-2" target="b3ZvS2Oc_ApeLWtBjF95-3">
          <mxGeometry relative="1" as="geometry" />
        </mxCell>
        <mxCell id="b3ZvS2Oc_ApeLWtBjF95-2" value="&lt;b&gt;User Input:&lt;/b&gt;&lt;br&gt;VM Name&lt;br&gt;New CPU Limit&lt;br&gt;New Memory Limit" style="rounded=0;whiteSpace=wrap;html=1;" vertex="1" parent="1">
          <mxGeometry x="200" y="80" width="120" height="60" as="geometry" />
        </mxCell>
        <mxCell id="b3ZvS2Oc_ApeLWtBjF95-7" value="" style="edgeStyle=orthogonalEdgeStyle;rounded=0;orthogonalLoop=1;jettySize=auto;html=1;" edge="1" parent="1" source="b3ZvS2Oc_ApeLWtBjF95-3">
          <mxGeometry relative="1" as="geometry">
            <mxPoint x="380" y="280" as="targetPoint" />
          </mxGeometry>
        </mxCell>
        <mxCell id="b3ZvS2Oc_ApeLWtBjF95-44" style="edgeStyle=orthogonalEdgeStyle;rounded=0;orthogonalLoop=1;jettySize=auto;html=1;" edge="1" parent="1" source="b3ZvS2Oc_ApeLWtBjF95-3">
          <mxGeometry relative="1" as="geometry">
            <mxPoint x="490" y="210" as="targetPoint" />
          </mxGeometry>
        </mxCell>
        <mxCell id="b3ZvS2Oc_ApeLWtBjF95-3" value="Check VM present in vCenter or not" style="rounded=1;whiteSpace=wrap;html=1;" vertex="1" parent="1">
          <mxGeometry x="320" y="180" width="120" height="60" as="geometry" />
        </mxCell>
        <mxCell id="b3ZvS2Oc_ApeLWtBjF95-9" style="edgeStyle=orthogonalEdgeStyle;rounded=0;orthogonalLoop=1;jettySize=auto;html=1;" edge="1" parent="1" source="b3ZvS2Oc_ApeLWtBjF95-8" target="b3ZvS2Oc_ApeLWtBjF95-10">
          <mxGeometry relative="1" as="geometry">
            <mxPoint x="260" y="335" as="targetPoint" />
          </mxGeometry>
        </mxCell>
        <mxCell id="b3ZvS2Oc_ApeLWtBjF95-12" style="edgeStyle=orthogonalEdgeStyle;rounded=0;orthogonalLoop=1;jettySize=auto;html=1;entryX=0;entryY=0.5;entryDx=0;entryDy=0;" edge="1" parent="1" source="b3ZvS2Oc_ApeLWtBjF95-8" target="b3ZvS2Oc_ApeLWtBjF95-11">
          <mxGeometry relative="1" as="geometry" />
        </mxCell>
        <mxCell id="b3ZvS2Oc_ApeLWtBjF95-8" value="Check VM present in cluster or host" style="rhombus;whiteSpace=wrap;html=1;" vertex="1" parent="1">
          <mxGeometry x="315" y="280" width="130" height="110" as="geometry" />
        </mxCell>
        <mxCell id="b3ZvS2Oc_ApeLWtBjF95-38" style="edgeStyle=orthogonalEdgeStyle;rounded=0;orthogonalLoop=1;jettySize=auto;html=1;entryX=1;entryY=0.5;entryDx=0;entryDy=0;" edge="1" parent="1" source="b3ZvS2Oc_ApeLWtBjF95-10" target="b3ZvS2Oc_ApeLWtBjF95-40">
          <mxGeometry relative="1" as="geometry">
            <mxPoint x="130" y="335" as="targetPoint" />
          </mxGeometry>
        </mxCell>
        <mxCell id="b3ZvS2Oc_ApeLWtBjF95-10" value="Check Cluster current config &amp;amp; compare with thresold" style="rhombus;whiteSpace=wrap;html=1;" vertex="1" parent="1">
          <mxGeometry x="170" y="280" width="120" height="110" as="geometry" />
        </mxCell>
        <mxCell id="b3ZvS2Oc_ApeLWtBjF95-41" style="edgeStyle=orthogonalEdgeStyle;rounded=0;orthogonalLoop=1;jettySize=auto;html=1;entryX=0.5;entryY=0;entryDx=0;entryDy=0;" edge="1" parent="1" source="b3ZvS2Oc_ApeLWtBjF95-11" target="b3ZvS2Oc_ApeLWtBjF95-27">
          <mxGeometry relative="1" as="geometry" />
        </mxCell>
        <mxCell id="b3ZvS2Oc_ApeLWtBjF95-11" value="Check Host current config &amp;amp; compare with thresold" style="rhombus;whiteSpace=wrap;html=1;" vertex="1" parent="1">
          <mxGeometry x="470" y="280" width="120" height="110" as="geometry" />
        </mxCell>
        <mxCell id="b3ZvS2Oc_ApeLWtBjF95-33" style="edgeStyle=orthogonalEdgeStyle;rounded=0;orthogonalLoop=1;jettySize=auto;html=1;entryX=0.429;entryY=0;entryDx=0;entryDy=0;entryPerimeter=0;" edge="1" parent="1" source="b3ZvS2Oc_ApeLWtBjF95-14" target="b3ZvS2Oc_ApeLWtBjF95-31">
          <mxGeometry relative="1" as="geometry" />
        </mxCell>
        <mxCell id="b3ZvS2Oc_ApeLWtBjF95-14" value="Hot-add Property Enabled" style="rounded=1;whiteSpace=wrap;html=1;" vertex="1" parent="1">
          <mxGeometry x="325" y="410" width="120" height="60" as="geometry" />
        </mxCell>
        <mxCell id="b3ZvS2Oc_ApeLWtBjF95-23" value="" style="endArrow=classic;html=1;exitX=0.5;exitY=1;exitDx=0;exitDy=0;entryX=0;entryY=0.5;entryDx=0;entryDy=0;" edge="1" parent="1" source="b3ZvS2Oc_ApeLWtBjF95-10" target="b3ZvS2Oc_ApeLWtBjF95-14">
          <mxGeometry width="50" height="50" relative="1" as="geometry">
            <mxPoint x="205" y="450" as="sourcePoint" />
            <mxPoint x="230" y="440" as="targetPoint" />
            <Array as="points">
              <mxPoint x="230" y="440" />
            </Array>
          </mxGeometry>
        </mxCell>
        <mxCell id="b3ZvS2Oc_ApeLWtBjF95-25" value="" style="endArrow=classic;html=1;exitX=0.5;exitY=1;exitDx=0;exitDy=0;entryX=1;entryY=0.5;entryDx=0;entryDy=0;" edge="1" parent="1" target="b3ZvS2Oc_ApeLWtBjF95-14">
          <mxGeometry width="50" height="50" relative="1" as="geometry">
            <mxPoint x="530" y="390" as="sourcePoint" />
            <mxPoint x="620" y="440" as="targetPoint" />
            <Array as="points">
              <mxPoint x="530" y="440" />
            </Array>
          </mxGeometry>
        </mxCell>
        <mxCell id="b3ZvS2Oc_ApeLWtBjF95-27" value="Notify and Exit" style="ellipse;whiteSpace=wrap;html=1;" vertex="1" parent="1">
          <mxGeometry x="610" y="430" width="80" height="80" as="geometry" />
        </mxCell>
        <mxCell id="b3ZvS2Oc_ApeLWtBjF95-28" value="" style="endArrow=classic;html=1;entryX=0;entryY=0.375;entryDx=0;entryDy=0;entryPerimeter=0;" edge="1" parent="1" target="b3ZvS2Oc_ApeLWtBjF95-27">
          <mxGeometry width="50" height="50" relative="1" as="geometry">
            <mxPoint x="445" y="460" as="sourcePoint" />
            <mxPoint x="495" y="410" as="targetPoint" />
          </mxGeometry>
        </mxCell>
        <mxCell id="b3ZvS2Oc_ApeLWtBjF95-29" value="Not Present" style="text;html=1;align=center;verticalAlign=middle;resizable=0;points=[];autosize=1;" vertex="1" parent="1">
          <mxGeometry x="450" y="460" width="80" height="20" as="geometry" />
        </mxCell>
        <mxCell id="b3ZvS2Oc_ApeLWtBjF95-30" style="edgeStyle=orthogonalEdgeStyle;rounded=0;orthogonalLoop=1;jettySize=auto;html=1;" edge="1" parent="1" source="b3ZvS2Oc_ApeLWtBjF95-31" target="b3ZvS2Oc_ApeLWtBjF95-32">
          <mxGeometry relative="1" as="geometry">
            <mxPoint x="395" y="620" as="targetPoint" />
          </mxGeometry>
        </mxCell>
        <mxCell id="b3ZvS2Oc_ApeLWtBjF95-31" value="Backup of old config and Update CPU/Memory configuration" style="rounded=1;whiteSpace=wrap;html=1;" vertex="1" parent="1">
          <mxGeometry x="325" y="520" width="140" height="60" as="geometry" />
        </mxCell>
        <mxCell id="b3ZvS2Oc_ApeLWtBjF95-32" value="Verify the updated specs of VM" style="ellipse;whiteSpace=wrap;html=1;" vertex="1" parent="1">
          <mxGeometry x="335" y="620" width="120" height="80" as="geometry" />
        </mxCell>
        <mxCell id="b3ZvS2Oc_ApeLWtBjF95-34" value="Cluster" style="text;html=1;align=center;verticalAlign=middle;resizable=0;points=[];autosize=1;" vertex="1" parent="1">
          <mxGeometry x="275" y="300" width="60" height="20" as="geometry" />
        </mxCell>
        <mxCell id="b3ZvS2Oc_ApeLWtBjF95-35" value="Host" style="text;html=1;align=center;verticalAlign=middle;resizable=0;points=[];autosize=1;" vertex="1" parent="1">
          <mxGeometry x="440" y="300" width="40" height="20" as="geometry" />
        </mxCell>
        <mxCell id="b3ZvS2Oc_ApeLWtBjF95-36" value="Below Thresold" style="text;html=1;align=center;verticalAlign=middle;resizable=0;points=[];autosize=1;" vertex="1" parent="1">
          <mxGeometry x="220" y="410" width="100" height="20" as="geometry" />
        </mxCell>
        <mxCell id="b3ZvS2Oc_ApeLWtBjF95-37" value="Below Thresold" style="text;html=1;align=center;verticalAlign=middle;resizable=0;points=[];autosize=1;" vertex="1" parent="1">
          <mxGeometry x="440" y="410" width="100" height="20" as="geometry" />
        </mxCell>
        <mxCell id="b3ZvS2Oc_ApeLWtBjF95-40" value="Notify and Exit" style="ellipse;whiteSpace=wrap;html=1;" vertex="1" parent="1">
          <mxGeometry x="10" y="295" width="80" height="80" as="geometry" />
        </mxCell>
        <mxCell id="b3ZvS2Oc_ApeLWtBjF95-42" value="Above Threshold" style="text;html=1;align=center;verticalAlign=middle;resizable=0;points=[];autosize=1;" vertex="1" parent="1">
          <mxGeometry x="590" y="310" width="110" height="20" as="geometry" />
        </mxCell>
        <mxCell id="b3ZvS2Oc_ApeLWtBjF95-43" value="Above Threshold" style="text;html=1;align=center;verticalAlign=middle;resizable=0;points=[];autosize=1;" vertex="1" parent="1">
          <mxGeometry x="90" y="295" width="110" height="20" as="geometry" />
        </mxCell>
        <mxCell id="b3ZvS2Oc_ApeLWtBjF95-45" value="Notify and Exit" style="ellipse;whiteSpace=wrap;html=1;" vertex="1" parent="1">
          <mxGeometry x="490" y="170" width="80" height="80" as="geometry" />
        </mxCell>
        <mxCell id="b3ZvS2Oc_ApeLWtBjF95-46" value="Not" style="text;html=1;align=center;verticalAlign=middle;resizable=0;points=[];autosize=1;" vertex="1" parent="1">
          <mxGeometry x="450" y="190" width="30" height="20" as="geometry" />
        </mxCell>
      </root>
    </mxGraphModel>
  </diagram>
</mxfile>
